PathFileType	4	(X/Y/Z)	c:/Users/goper/Files/vsCode/490R/osim_files/C10/C10_Fast_03.trc
DataRate	CameraRate	NumFrames	NumMarkers	Units                	OrigDataRate	OrigDataStartFrame	OrigNumFrames
250.00	250.00	9	36	mm	250.0	1019	2716
                Frame#	Time	LPSIS			LASIS			LTH1			LTH2			LTH3			LTH4			LLFE			LMFE			LSH1			LSH2			LSH3			LSH4			LLMAL			LMMAL			LCAL			LMTP5			LTOE			LMTP1			RPSIS			RASIS			RTH1			RTH2			RTH3			RTH4			RLFE			RMFE			RSH1			RSH2			RSH3			RSH4			RLMAL			RMMAL			RCAL			RMTP1			RTOE			RMTP5		
		X1	Y1	Z1	X2	Y2	Z2	X3	Y3	Z3	X4	Y4	Z4	X5	Y5	Z5	X6	Y6	Z6	X7	Y7	Z7	X8	Y8	Z8	X9	Y9	Z9	X10	Y10	Z10	X11	Y11	Z11	X12	Y12	Z12	X13	Y13	Z13	X14	Y14	Z14	X15	Y15	Z15	X16	Y16	Z16	X17	Y17	Z17	X18	Y18	Z18	X19	Y19	Z19	X20	Y20	Z20	X21	Y21	Z21	X22	Y22	Z22	X23	Y23	Z23	X24	Y24	Z24	X25	Y25	Z25	X26	Y26	Z26	X27	Y27	Z27	X28	Y28	Z28	X29	Y29	Z29	X30	Y30	Z30	X31	Y31	Z31	X32	Y32	Z32	X33	Y33	Z33	X34	Y34	Z34	X35	Y35	Z35	X36	Y36	Z36

1019	4.07200	-942.37372	1002.78424	331.70367	-1093.34912	983.05743	481.91592	-993.86401	767.66077	527.01270	-990.49829	720.13312	523.25653	-1052.59229	758.99164	519.25171	-1039.73291	712.84448	515.40253	-938.28223	480.71417	451.44363	-946.37695	468.65286	334.64059	-859.43591	412.86005	454.49643	-847.16632	367.31784	455.53818	-916.56354	393.58386	446.24100	-896.45184	352.11548	447.34937	-795.51489	97.78111	404.83978	0.00000	0.00000	0.00000	-719.80261	53.55261	365.66626	-892.52081	30.43627	424.19647	-946.95898	48.37140	359.47394	-904.20941	26.45298	314.00870	-948.27081	988.03210	252.70531	-1109.04602	961.67969	150.96207	-1103.39258	689.67322	112.78323	-1129.03113	652.77075	114.99582	-1157.17480	718.87592	108.42331	-1176.45288	678.82294	111.79781	-1269.54980	481.88043	181.84366	-1283.15857	487.17096	296.92288	-1249.87952	373.74197	172.82259	-1274.72021	337.11078	171.92792	-1306.79346	402.14920	178.38078	-1322.29089	361.55261	175.70193	-1420.58398	111.97125	217.65291	0.00000	0.00000	0.00000	-1399.66138	38.57819	261.37592	-1569.89258	129.48727	284.55624	-1583.56567	163.40126	245.91035	-1549.03406	124.30850	185.23030
1020	4.07600	-948.85022	1002.03876	331.10559	-1099.43579	982.19873	481.72357	-998.78015	767.40973	526.56671	-995.18677	719.91437	522.98737	-1057.44592	758.42590	519.24768	-1044.44104	712.31506	515.46362	-942.00659	480.58774	451.43149	-950.80402	468.08936	334.68353	-862.48413	413.98050	453.97073	-849.91724	367.98511	455.19635	-919.63715	393.52942	446.19559	-899.07715	352.26306	447.28925	-796.08569	98.73671	404.63721	0.00000	0.00000	0.00000	-720.26001	55.09395	365.51230	-892.55603	30.48918	424.11029	-947.04968	48.30209	359.42670	-904.35077	26.59229	313.97269	-954.91333	987.18524	252.10284	-1116.12170	960.41370	150.77676	-1109.64819	688.59515	113.13405	-1134.58887	651.74390	114.58408	-1163.05310	717.72656	108.56148	-1182.02942	677.59631	111.40389	-1276.56165	481.04330	181.85072	-1287.80237	484.97546	297.35696	-1258.04541	372.94641	171.84189	-1283.36890	336.60468	171.01973	-1314.75061	401.78912	178.38257	-1330.67249	361.48666	175.66708	-1431.19678	112.91993	217.16008	0.00000	0.00000	0.00000	-1410.82434	38.86403	260.35077	-1579.84656	131.49524	285.87885	-1593.38159	165.95677	247.68262	-1559.60376	127.21177	186.01582
1021	4.08000	-955.40515	1001.23187	330.52872	-1105.59460	981.32385	481.48007	-1003.94275	767.08997	526.11554	-1000.06177	719.63983	522.66272	-1062.57068	757.72833	519.19452	-1049.31860	711.67627	515.43726	-945.95953	480.41962	451.39264	-955.28149	467.56152	334.70334	-865.37701	414.11588	454.13525	-852.81525	368.64517	454.96402	-922.83307	393.50311	446.22794	-901.84283	352.40451	447.29944	-796.69598	99.77287	404.47836	0.00000	0.00000	0.00000	-720.60614	56.77275	365.30353	-892.54907	30.49053	424.02402	-947.10657	48.20215	359.39966	-904.36633	26.77445	313.92340	-961.64221	986.27960	251.49150	-1123.07495	959.13922	150.70784	-1115.25195	687.88373	113.18689	-1140.33691	650.89648	114.18147	-1168.95154	716.84637	108.75075	-1187.89551	676.59949	111.01853	-1283.62939	480.20599	181.94505	-1292.67224	482.88480	297.72595	-1266.04797	372.09970	171.01634	-1291.80542	336.04419	170.31757	-1322.48267	401.33783	178.36040	-1338.81409	361.29239	175.58157	-1441.04590	113.52371	216.81374	0.00000	0.00000	0.00000	-1421.19995	38.97091	259.53238	-1589.09473	133.02742	287.14252	-1602.61584	167.87344	249.27380	-1569.76013	129.21941	187.03589
1022	4.08400	-961.96960	1000.43097	329.94626	-1111.82312	980.48749	481.28177	-1009.21497	766.75745	525.72113	-1005.13623	719.34290	522.34497	-1067.86084	757.02106	519.04663	-1054.39417	711.13324	515.30469	-950.03888	480.24838	451.44177	-959.87738	467.03955	334.75092	-869.50470	414.37061	453.55136	-855.84686	369.26065	454.74139	-926.04645	393.48166	446.31104	-904.72650	352.55597	447.33902	-797.42633	100.81718	404.37866	0.00000	0.00000	0.00000	-721.08093	58.48175	365.17322	-892.58752	30.51226	423.96848	-947.21350	48.11987	359.36996	-904.47681	26.97259	313.88470	-968.41333	985.38995	250.88913	-1130.14539	957.97504	150.52563	-1121.16907	687.34021	113.24545	-1146.42432	650.21326	113.86940	-1175.16968	716.20740	108.97701	-1193.98438	675.87732	110.71525	-1290.78394	479.37216	182.00603	-1297.71069	480.95908	297.98788	-1274.20569	371.19058	170.52664	-1299.88989	335.38342	169.70682	-1329.99573	400.76697	178.30612	-1346.27698	361.12207	175.26309	-1451.09949	113.52548	217.26628	0.00000	0.00000	0.00000	-1430.82361	38.83307	258.93365	-1597.85437	134.02110	288.27045	-1611.21045	169.18112	250.61089	-1579.13123	130.62872	187.89189
1023	4.08800	-968.72241	999.59760	329.38263	-1118.04480	979.66833	481.07184	-1014.59155	766.38293	525.34863	-1010.40173	718.95233	522.04077	-1073.23804	756.33228	519.01385	-1059.68872	710.63031	515.26617	0.00000	0.00000	0.00000	-964.52911	466.43542	334.88098	-873.10632	414.98395	453.41412	-859.02850	369.87524	454.56332	-929.50671	393.38492	446.39468	-907.69934	352.64490	447.41733	-798.16461	101.94239	404.32065	0.00000	0.00000	0.00000	-721.54852	60.31049	365.14401	-892.60437	30.54365	423.91287	-947.20905	47.61573	359.61090	-904.51770	26.68983	314.16058	-975.12994	984.50952	250.29736	-1137.21924	956.85144	150.39838	-1127.54810	686.76550	113.34478	-1152.92212	649.63672	113.63288	-1181.51355	715.59241	109.16521	-1200.40808	675.33093	110.55399	-1297.88257	478.63062	182.05289	-1303.14929	479.29636	298.28171	-1281.73511	370.30307	169.86624	-1307.62659	334.63065	169.24162	-1337.02161	400.89700	178.71613	-1353.95166	360.21008	175.10320	-1459.62415	113.37489	217.23282	0.00000	0.00000	0.00000	-1439.48999	38.43406	258.53876	-1605.82080	134.42375	289.18381	-1619.16394	169.78433	251.76112	-1587.70447	131.31839	188.67702
1024	4.09200	-975.40485	998.78210	328.77393	-1124.42102	978.78845	480.86307	-1020.24829	765.96661	524.94690	-1015.70941	718.59424	521.75342	-1078.84070	755.57684	518.83258	-1064.95996	709.85785	515.12415	0.00000	0.00000	0.00000	-969.30554	465.95706	334.97040	-876.62567	415.53879	453.08417	-862.26129	370.59781	454.44785	-933.02118	393.33237	446.50946	-910.81561	352.79996	447.54819	-798.95612	103.07701	404.30191	0.00000	0.00000	0.00000	-722.08295	62.13523	365.10699	-892.64117	30.55528	423.85889	-947.24786	47.48548	359.51526	-904.59290	26.85996	314.08417	-981.89807	983.62842	249.70097	-1144.22510	955.80853	150.24442	-1134.30786	686.21393	113.39319	-1159.74731	649.15082	113.52278	-1188.24841	715.16827	109.36633	-1207.23352	674.89642	110.56890	-1305.05603	477.99313	182.09732	-1308.76123	477.95456	298.46899	-1289.02930	369.39825	169.47925	-1315.07996	333.84619	168.94461	-1344.07458	399.94516	178.71942	-1361.25183	359.47186	175.00119	-1467.45422	112.93497	217.28879	0.00000	0.00000	0.00000	-1447.15076	37.76608	258.23471	-1613.19812	134.17734	289.92465	-1626.57959	169.66348	252.66177	-1595.47839	131.24323	189.29124
1025	4.09600	-982.26141	997.89020	328.21506	-1130.64172	977.98523	480.68259	-1025.99072	765.57184	524.63348	-1021.23859	718.21881	521.49438	-1084.48999	754.92218	518.76093	-1070.48218	709.24969	515.03192	0.00000	0.00000	0.00000	-974.09119	465.36197	335.11343	-880.13275	416.10864	453.58786	-865.73535	371.24799	454.42462	-936.60205	393.22891	446.64716	-914.04138	352.95624	447.64508	-799.79376	104.30440	404.42874	0.00000	0.00000	0.00000	-722.61755	64.10009	365.22781	-892.72565	30.61332	423.79919	-947.26984	47.33487	359.45520	-904.59766	27.03388	314.06818	-988.73535	982.72455	249.09460	-1151.21667	954.82385	150.09412	-1141.37744	685.64130	113.40030	-1166.93689	648.61823	113.55480	-1195.22522	714.75000	109.51011	-1214.31702	674.56976	110.68714	-1312.32690	477.34933	182.14874	-1314.49829	476.55963	298.01416	-1296.12708	368.47192	169.22610	-1322.22595	332.92126	168.72926	-1351.23962	399.19843	178.52205	-1368.41748	358.57562	174.97214	-1474.13184	112.25282	216.99043	0.00000	0.00000	0.00000	-1454.06262	36.80801	258.27063	-1620.04675	133.42407	290.48929	-1633.35547	168.85965	253.30350	-1602.84912	130.15149	190.10362
1026	4.10000	-989.16870	997.04248	327.64713	-1137.09033	977.13989	480.51614	-1031.91479	765.15717	524.32202	-1027.03711	717.79938	521.23395	-1090.49463	754.15460	518.55890	-1076.28137	708.71362	514.85327	0.00000	0.00000	0.00000	-978.87762	464.83746	335.18954	-883.89740	416.81262	454.82605	-869.35150	371.83322	454.46265	-940.48499	393.12549	446.75259	-917.52747	353.04303	447.72855	-800.72083	105.56228	404.59506	0.00000	0.00000	0.00000	-723.21051	66.15499	365.37268	-892.80280	30.65170	423.76266	-947.24823	47.17840	359.39777	-904.68280	27.50989	313.95721	-995.54309	981.83789	248.50333	-1158.27478	953.88263	149.90393	-1148.76746	685.08582	113.33095	-1174.46692	648.10486	113.67604	-1202.53418	714.40704	109.60974	-1221.84131	674.15137	111.04135	-1319.47083	476.79507	182.15012	-1321.04895	475.86752	298.12430	-1303.03894	367.57245	169.10844	-1329.01648	331.98459	168.67931	-1358.14001	398.24356	178.47435	-1375.17542	357.57458	174.94452	-1480.36865	110.95553	217.14035	0.00000	0.00000	0.00000	-1460.10413	35.55348	258.41400	-1626.19617	131.91632	290.87592	-1639.57861	167.38994	253.65146	-1608.77014	128.96399	190.14270
1027	4.10400	-996.11456	996.17841	327.07040	-1143.55225	976.28290	480.31760	-1038.01758	764.71008	524.06775	-1032.97339	717.33978	521.03900	-1096.51746	753.42993	518.39154	-1082.20703	708.10980	514.70355	0.00000	0.00000	0.00000	-983.73364	464.27988	335.32422	-888.90503	417.33630	453.14581	-873.12610	372.34253	454.51602	-944.44373	392.96289	446.89468	-921.07434	353.14178	447.87576	-801.77582	106.85718	404.81046	0.00000	0.00000	0.00000	-723.91534	68.21776	365.63730	-892.96075	30.67607	423.75052	-947.27155	47.02984	359.37338	-904.84467	28.00836	313.88586	-1002.45154	980.87463	247.92287	-1165.22937	952.99329	149.66638	-1156.42749	684.47522	113.25523	-1182.30457	647.64056	113.88869	-1210.00989	714.03040	109.67407	-1229.48914	673.82422	111.40202	-1326.73987	476.23627	182.20274	-1327.93774	475.45834	298.13306	-1309.67554	366.66608	169.09795	-1335.52563	330.96976	168.73509	-1364.91125	397.02493	178.30725	-1381.78711	356.39923	174.90485	-1485.73108	109.36105	217.33893	0.00000	0.00000	0.00000	-1465.47632	33.88178	258.65536	-1631.78931	129.88245	291.06860	-1645.30737	165.18449	253.82362	-1614.28125	126.83396	190.32913
